<?xml version="1.0" encoding="UTF-8" standalone="no"?>
<svg
   xmlns:dc="http://purl.org/dc/elements/1.1/"
   xmlns:cc="http://creativecommons.org/ns#"
   xmlns:rdf="http://www.w3.org/1999/02/22-rdf-syntax-ns#"
   xmlns:svg="http://www.w3.org/2000/svg"
   xmlns="http://www.w3.org/2000/svg"
   xmlns:sodipodi="http://sodipodi.sourceforge.net/DTD/sodipodi-0.dtd"
   xmlns:inkscape="http://www.inkscape.org/namespaces/inkscape"
   width="66mm"
   height="13mm"
   viewBox="0 0 66 13"
   version="1.1"
   id="svg8"
   inkscape:version="1.0.2-2 (e86c870879, 2021-01-15)"
   sodipodi:docname="titulo1.svg">
  <defs
     id="defs2">
    <rect
       x="168.19989"
       y="94.597"
       width="26.180893"
       height="38.283382"
       id="rect1215" />
    <rect
       x="168.19989"
       y="94.597"
       width="26.180893"
       height="38.283382"
       id="rect863" />
    <rect
       x="168.19989"
       y="94.597"
       width="26.180893"
       height="38.283382"
       id="rect1225" />
    <rect
       x="168.19989"
       y="94.597"
       width="26.180893"
       height="38.283382"
       id="rect866" />
  </defs>
  <sodipodi:namedview
     id="base"
     pagecolor="#ffffff"
     bordercolor="#666666"
     borderopacity="1.0"
     inkscape:pageopacity="0.0"
     inkscape:pageshadow="2"
     inkscape:zoom="1.979899"
     inkscape:cx="99.858684"
     inkscape:cy="-29.335005"
     inkscape:document-units="mm"
     inkscape:current-layer="layer1"
     inkscape:document-rotation="0"
     showgrid="false"
     inkscape:window-width="1258"
     inkscape:window-height="728"
     inkscape:window-x="92"
     inkscape:window-y="0"
     inkscape:window-maximized="0" />
  <metadata
     id="metadata5">
    <rdf:RDF>
      <cc:Work
         rdf:about="">
        <dc:format>image/svg+xml</dc:format>
        <dc:type
           rdf:resource="http://purl.org/dc/dcmitype/StillImage" />
        <dc:title></dc:title>
      </cc:Work>
    </rdf:RDF>
  </metadata>
  <g
     inkscape:label="Capa 1"
     inkscape:groupmode="layer"
     id="layer1">
    <path
       class="cls-1"
       d="m 28.024869,8.8041712 c -0.0716,0.1539834 -0.199408,0.4234542 -0.269471,0.5774375 0.08739,0.025022 0.195559,-0.056974 0.279095,-0.09239 0.05851,-0.025022 0.109713,-0.063133 0.165917,-0.093545 a 0.28140452,0.28140452 0 0 1 0.182085,-0.038496 0.19247915,0.19247915 0 0 0 0.0096,-0.1574479 0.50660512,0.50660512 0 0 0 -0.08123,-0.1401249 c -0.0385,-0.04966 -0.06737,-0.2694708 -0.130501,-0.2840992 -0.07892,-0.018093 -0.132041,0.1774658 -0.155523,0.2286652 z"
       id="path14-1"
       style="mix-blend-mode:normal;stroke-width:0.138;fill:#c10a74;fill-opacity:1;stroke-miterlimit:4;stroke-dasharray:none" />
    <path
       class="cls-2"
       d="m 17.268364,6.8343396 2.796337,-0.2798647 q -0.508145,1.4539875 -0.723336,2.566517 -0.333759,1.1452511 -0.508915,1.8635831 l -0.286409,1.129468 q -0.987803,0.148594 -2.647358,0.327214 a 2.2627849,2.2627849 0 0 1 0.01617,-0.252917 6.0569339,6.0569339 0 0 1 -1.778123,0.249838 q -2.085704,-0.0035 -3.252512,-1.522895 -1.0721091,-1.4077929 -1.0682595,-3.6520998 0,-0.4815829 0.056974,-1.0270688 0.2733205,-2.4009849 1.9983185,-4.1363769 1.765419,-1.7669586 4.032823,-1.76310902 3.428824,0.006159 4.84701,2.46604282 L 17.761883,4.3128628 Q 17.155573,3.000155 15.70967,2.9974602 14.2322,2.9951502 13.242857,3.9983518 12.308563,4.9526635 12.084903,6.5325323 a 4.2141385,4.2141385 0 0 0 -0.05659,0.6159333 q 0,1.1856716 0.660203,2.0318099 0.692925,0.8942585 1.791981,0.8961825 c 0.79032,0 1.483245,-0.3133556 2.043359,-0.6063089 l 0.722952,-2.2585503 m -1.302699,1.9132427"
       id="path16-4"
       style="mix-blend-mode:normal;stroke-width:0.138;fill:#c10a74;fill-opacity:1;stroke:#000000;stroke-miterlimit:4;stroke-dasharray:none" />
    <path
       class="cls-2"
       d="m 22.004506,0.50562517 c 1.085325,-0.16116933 1.704723,-0.20146138 2.494915,-0.20017831 0.179648,0 0.382391,0.010907 0.608234,0.0327215 0.626712,0.0485047 0.98485,0.080713 1.074419,0.0966245 0.378656,0.067559 0.747365,0.18227082 1.097516,0.34145801 0.884122,0.37032983 1.325538,1.00320133 1.324256,1.89861433 -0.0043,0.1623912 -0.02315,0.3240721 -0.0562,0.4831227 -0.266133,1.4058677 -1.168475,2.2865241 -2.707026,2.6419688 0.983183,1.0763434 1.80045,2.1576912 2.451799,3.2440436 L 26.110471,9.8300851 C 25.485557,8.5543333 24.650198,7.3045019 23.604393,6.0805913 L 23.281028,5.8111205 23.066221,6.4655496 c -0.148082,0.4740118 -0.413187,1.4613017 -0.795324,2.9618691 l -0.07083,0.0077 c -0.674704,0.1306279 -1.452063,0.313614 -2.332077,0.5489505 0.297187,-1.1374235 0.652247,-2.3114178 1.065179,-3.5219835 0.254073,-0.7635005 0.653403,-1.7373168 1.19799,-2.9214485 0.111125,-0.2368775 0.269728,-0.5576764 0.475809,-0.9623957 -0.166302,0.04889 -0.535092,0.09008 -0.680606,0.137815 m 4.693411,0.2321299 v 0 c 0,-0.3372235 -0.223403,-0.5878313 -0.670212,-0.7518236 -0.131656,-0.052868 -0.344923,-0.079558 -0.639801,-0.080071 h -0.166302 c -0.263311,0.010009 -0.616318,0.07789 -1.05902,0.2036429 l 0.450016,0.230975 c -0.178621,0.3206406 -0.337397,0.6519427 -0.475423,0.9920376 -0.01027,0.025664 -0.09496,0.2520195 -0.254073,0.6790664 l 0.545486,-0.015013 c 0.564607,-0.014628 1.041439,-0.09547 1.430505,-0.2425237 0.558702,-0.2194262 0.881997,-0.6680501 0.838824,-1.0162906 z"
       id="path18"
       sodipodi:nodetypes="ccccccccccccccccccccccccccccccccc"
       style="mix-blend-mode:normal;stroke-width:0.138;fill:#c10a74;fill-opacity:1;stroke:#000000;stroke-miterlimit:4;stroke-dasharray:none" />
    <path
       class="cls-2"
       d="m 32.831073,6.9094065 -1.919787,0.09162 q -0.594375,0.9389133 -1.086737,2.4471799 l -2.39521,0.5886016 Q 27.532507,9.6418405 28.365172,7.9603427 L 28.94261,6.7919942 q 0.816496,-1.6495463 2.567287,-4.0724738 a 27.205003,27.205003 0 0 1 1.892455,-2.36710863 q 0.5528,-0.0142435 1.635302,-0.0681376 l 0.05389,0.80610263 q 0.05389,0.9169707 0.05235,1.7619542 A 18.393693,18.393693 0 0 1 34.89368,5.9493205 Q 34.80591,6.194154 34.508722,8.0107722 a 12.331754,12.331754 0 0 1 -0.247144,1.2241674 l -2.394825,0.5805171 q 0.257537,-0.8134169 0.96432,-2.9060502 z m 0.65443,-4.5575213 q -0.32452,0.4573304 -1.362753,2.1942623 l -0.570508,0.9623957 1.287685,-0.021173 0.292184,0.230975 q 0.36417,-0.7968637 0.368405,-2.9306875 a 3.7768259,3.7768259 0 0 0 -0.01347,-0.4357728 z"
       id="path20"
       style="mix-blend-mode:normal;stroke-width:0.138;fill:#c10a74;fill-opacity:1;stroke:#000000;stroke-miterlimit:4;stroke-dasharray:none" />
    <path
       class="cls-3"
       d="m 37.345864,9.7142127 q -1.043237,0.1093281 -2.370958,0.3356833 v -0.02348 q 0,-0.087001 0.334144,-1.2703625 0.397277,-1.3743012 0.707168,-2.2427671 0.523544,-1.4528326 1.190291,-2.9291477 0.253303,-0.5524152 0.570894,-1.1525652 -0.672138,0.069678 -1.256504,0.1397399 L 37.085248,0.6761617 Q 38.396801,0.57568758 40.222273,0.47636834 41.312475,0.41515997 43.746181,0.3400931 L 43.15681,2.1790389 h -0.726801 q -2.046439,-0.00385 -3.200159,0.088925 l 0.394583,0.230975 q -0.09509,0.2055677 -0.46811,1.0894319 -0.103169,0.230975 -0.230975,0.5389417 l 2.72589,-0.097779 -0.577053,1.6460816 -2.686623,0.09008 q -0.142435,0.4657995 -0.230975,0.7264163 a 17.160671,17.160671 0 0 0 -0.810723,3.2221013 z"
       id="path22-3"
       style="mix-blend-mode:normal;stroke-width:0.138;fill:#00ffff;fill-opacity:1;stroke:#000000;stroke-miterlimit:4;stroke-dasharray:none" />
    <path
       class="cls-3"
       d="m 51.169717,2.3195487 -0.544716,0.3622457 q 0.259847,0.7595228 0.258692,1.3042388 0,0.3949672 -0.120492,1.097901 -0.384958,2.2123554 -1.649546,3.5131295 -1.38585,1.4362793 -3.534303,1.4320453 -1.754255,-0.0035 -2.739748,-1.2218581 -0.906577,-1.1233083 -0.903497,-2.916829 0,-0.3868831 0.04119,-0.821886 0.230975,-1.9267163 1.688427,-3.3152609 1.495948,-1.41202702 3.408036,-1.4085624 2.896811,0.005389 4.095957,1.9748361 z m -2.533411,2.9899711 a 2.2581654,2.2581654 0 0 0 0.05582,-0.4346179 q 0,-0.7345005 -0.440392,-1.1225384 L 48.639387,3.5317824 Q 48.135092,2.4800763 46.90284,2.4777665 q -1.240336,0 -2.078775,0.794554 -0.78339,0.7652971 -0.975484,2.0287302 a 3.1566581,3.1566581 0 0 0 -0.04812,0.4977511 q 0,0.9481523 0.557805,1.6206744 0.583597,0.7198721 1.515966,0.7217969 1.113684,0 1.873977,-0.8819395 0.680606,-0.7806954 0.888097,-1.9498138 z"
       id="path24-4"
       style="mix-blend-mode:normal;stroke-width:0.138;fill:#00ffff;fill-opacity:1;stroke:#000000;stroke-miterlimit:4;stroke-dasharray:none" />
    <path
       class="cls-3"
       d="M 51.251713,10.864083 M 49.211434,10.074919 Q 51.247478,7.375976 53.242717,5.1674702 C 53.204222,5.0250356 53.16919,4.9542033 53.132619,4.9538183 q 0,-0.5604993 -0.800328,-3.1616625 L 51.970815,0.59878508 54.294423,0.08140113 q 0.377645,0.91735563 0.824581,3.04348027 0.988958,-1.0655645 2.509158,-2.59538881 l 0.260617,-0.0230975 q 0.711403,-0.0854607 1.643772,-0.1393549 -0.396122,0.4734987 -1.053246,1.22301251 l -2.960714,3.3999517 q 0.532397,2.6947081 0.529702,4.283431 l -2.394825,0.5805171 a 2.4860607,2.4860607 0 0 0 0.02425,-0.3949672 q 0,-0.7980185 -0.122801,-2.1811737 l -1.947505,2.2088907"
       id="path26-9"
       style="mix-blend-mode:normal;stroke-width:0.138;fill:#00ffff;fill-opacity:1;stroke:#000000;stroke-miterlimit:4;stroke-dasharray:none" />
    <polyline
       class="cls-4"
       points="865.5 937.5 840.5 940.35 840.48 950.16 864.5 948.5"
       id="polyline28-0"
       style="mix-blend-mode:normal;fill:#c10a74;fill-opacity:1;stroke-width:3.58480384;stroke-miterlimit:4;stroke-dasharray:none"
       transform="matrix(0.03849583,0,0,0.03849583,-15.972785,-29.255501)" />
    <polyline
       class="cls-5"
       points="865.5 937.5 840.5 940.35 840.48 950.16 864.5 948.5"
       id="polyline30-5"
       style="mix-blend-mode:normal;fill:#c10a74;fill-opacity:1;stroke-width:3.58480384;stroke-miterlimit:4;stroke-dasharray:none"
       transform="matrix(0.03849583,0,0,0.03849583,-15.972785,-29.255501)" />
    <polyline
       class="cls-4"
       points="986.53 773.1 946.5 777.5 963.5 835.5 988.5 829.5"
       id="polyline32-0"
       style="mix-blend-mode:normal;fill:#c10a74;fill-opacity:1;stroke-width:3.58480384;stroke-miterlimit:4;stroke-dasharray:none"
       transform="matrix(0.03849583,0,0,0.03849583,-15.972785,-29.255501)" />
    <polyline
       class="cls-5"
       points="986.53 773.1 946.5 777.5 963.5 835.5 988.5 829.5"
       id="polyline34-9"
       style="mix-blend-mode:normal;fill:#c10a74;fill-opacity:1;stroke:#000000;stroke-width:3.58480384;stroke-miterlimit:4;stroke-dasharray:none"
       transform="matrix(0.03849583,0,0,0.03849583,-15.972785,-29.255501)" />
    <polyline
       class="cls-6"
       points="1758.14 1003.61 1724.41 1063.8 1388.12 1071.62 1699.87 1014.15"
       id="polyline36-0"
       style="mix-blend-mode:normal;fill:#00ffff;fill-opacity:1;stroke-width:3.58480384;stroke-miterlimit:4;stroke-dasharray:none"
       transform="matrix(0.03849583,0,0,0.03849583,-15.972785,-29.255501)" />
    <polyline
       class="cls-5"
       points="1758.14 1003.61 1724.41 1063.8 1388.12 1071.62 1699.87 1014.15"
       id="polyline38-7"
       style="mix-blend-mode:normal;fill:#00ffff;fill-opacity:1;stroke:#000000;stroke-width:3.58480384;stroke-miterlimit:4;stroke-dasharray:none"
       transform="matrix(0.03849583,0,0,0.03849583,-15.972785,-29.255501)" />
    <text
       xml:space="preserve"
       id="text1213"
       style="font-size:10.5833px;line-height:1.25;font-family:'Adventure.otf';-inkscape-font-specification:'Adventure.otf';white-space:pre;shape-inside:url(#rect1215);display:inline;mix-blend-mode:normal;fill:#000080;"
       transform="translate(-167.31563,-93.553039)"><tspan
         x="168.19922"
         y="104.66575"><tspan
           style="font-style:normal;font-variant:normal;font-weight:normal;font-stretch:normal;font-family:'Adventure Hollow';-inkscape-font-specification:'Adventure Hollow';fill:#00ffff">¿</tspan></tspan></text>
    <text
       xml:space="preserve"
       id="text1223"
       style="font-size:10.5833px;line-height:1.25;font-family:'Adventure.otf';-inkscape-font-specification:'Adventure.otf';white-space:pre;shape-inside:url(#rect1225);display:inline;mix-blend-mode:normal;fill:#c10a74;fill-opacity:1;"
       transform="translate(-109.27308,-96.022935)"><tspan
         x="168.19922"
         y="104.66575"><tspan
           style="font-style:normal;font-variant:normal;font-weight:normal;font-stretch:normal;font-family:'Adventure Hollow';-inkscape-font-specification:'Adventure Hollow';fill:#c10a74;fill-opacity:1">?</tspan></tspan></text>
  </g>
</svg>
